<?xml version="1.0" encoding="utf-8"?>
<!-- Generator: Adobe Illustrator 26.3.1, SVG Export Plug-In . SVG Version: 6.00 Build 0)  -->
<svg version="1.1" id="Livello_1" xmlns="http://www.w3.org/2000/svg" xmlns:xlink="http://www.w3.org/1999/xlink" x="0px" y="0px"
	 viewBox="0 0 220.2 221.2" style="enable-background:new 0 0 220.2 221.2;" xml:space="preserve">
<style type="text/css">
	.st0{fill:#E6E7E8;}
</style>
<path class="st0" d="M10.9,214.8c-1.3,0-2.6-0.5-3.6-1.5c-2-2-2-5.3,0-7.3l96.6-96.6L7.2,12.9c-2-2-2-5.3,0-7.3s5.3-2,7.3,0
	l100.2,100.2c2,2,2,5.3,0,7.3L14.5,213.3C13.5,214.3,12.2,214.8,10.9,214.8z"/>
<path class="st0" d="M147.2,76.9c-1.3,0-2.6-0.5-3.6-1.5c-2-2-2-5.3,0-7.3l62.5-62.5c2-2,5.3-2,7.3,0c2,2,2,5.3,0,7.3l-62.5,62.5
	C149.9,76.4,148.6,76.9,147.2,76.9z"/>
<path class="st0" d="M209.7,214.8c-1.3,0-2.6-0.5-3.6-1.5L142.7,150c-2-2-2-5.3,0-7.3c2-2,5.3-2,7.3,0l63.4,63.4c2,2,2,5.3,0,7.3
	C212.3,214.3,211,214.8,209.7,214.8z"/>
</svg>
