<svg version="1.2" xmlns="http://www.w3.org/2000/svg" viewBox="0 0 297 297" width="297" height="297">
	<title>cofactory_nuovaX_green</title>
	<style>
		.s0 { fill: #008b93 } 
	</style>
	<g>
		<g id="Livello_1">
			<g>
				<path class="s0" d="m54.7 249.5c-1.3 0-2.5-0.5-3.5-1.4-1.9-2-1.9-5 0-7l91.7-91.6-91.7-91.7c-1.9-1.9-1.9-5 0-6.9 1.9-1.9 5-1.9 6.9 0l95.2 95.1c1.9 1.9 1.9 5 0 6.9l-95.2 95.2c-0.9 0.9-2.2 1.4-3.4 1.4z"/>
				<path class="s0" d="m184.2 118.5c-1.3 0-2.5-0.5-3.5-1.4-1.9-1.9-1.9-5 0-6.9l59.3-59.3c1.9-1.9 5-1.9 6.9 0 1.9 1.9 1.9 5 0 6.9l-59.3 59.3c-0.9 0.9-2.2 1.4-3.4 1.4z"/>
				<path class="s0" d="m243.5 249.5c-1.3 0-2.5-0.5-3.5-1.4l-60.2-60.2c-1.9-1.9-1.9-5 0-6.9 2-1.9 5-1.9 7 0l60.1 60.1c1.9 2 1.9 5 0 7-0.9 0.9-2.2 1.4-3.4 1.4z"/>
			</g>
		</g>
	</g>
</svg>