<?xml version="1.0" encoding="UTF-8"?>
<svg xmlns="http://www.w3.org/2000/svg" version="1.1" viewBox="0 0 595.28 841.89">
  <defs>
    <style>
      .cls-1 {
        fill: #008b93;
      }
    </style>
  </defs>
  <!-- Generator: Adobe Illustrator 28.7.1, SVG Export Plug-In . SVG Version: 1.2.0 Build 142)  -->
  <g>
    <g id="Livello_1">
      <g>
        <path class="cls-1" d="M203.69,521.48c-1.25,0-2.5-.48-3.46-1.43-1.91-1.91-1.91-5,0-6.91l91.67-91.67-91.67-91.67c-1.91-1.91-1.91-5,0-6.91,1.91-1.91,5-1.91,6.91,0l95.13,95.13c1.91,1.91,1.91,5,0,6.91l-95.13,95.13c-.95.95-2.21,1.43-3.46,1.43Z"/>
        <path class="cls-1" d="M333.16,390.52c-1.25,0-2.5-.48-3.46-1.43-1.91-1.91-1.91-5,0-6.91l59.3-59.3c1.91-1.91,5-1.91,6.91,0,1.91,1.91,1.91,5,0,6.91l-59.3,59.3c-.95.95-2.21,1.43-3.46,1.43Z"/>
        <path class="cls-1" d="M392.47,521.48c-1.25,0-2.5-.48-3.46-1.43l-60.17-60.16c-1.91-1.91-1.91-5,0-6.91,1.91-1.91,5-1.91,6.91,0l60.17,60.16c1.91,1.91,1.91,5,0,6.91-.95.95-2.21,1.43-3.46,1.43Z"/>
      </g>
    </g>
  </g>
</svg>