<?xml version="1.0" encoding="UTF-8"?>
<svg id="Livello_1" data-name="Livello 1" xmlns="http://www.w3.org/2000/svg" version="1.1" viewBox="0 0 937.34 350.62">
  <defs>
    <style>
      .cls-1 {
        fill: none;
        stroke: #fff;
        stroke-miterlimit: 10;
        stroke-width: .33px;
      }
    </style>
  </defs>
  <path class="cls-1" d="M124.58,134.5v25.14h16.47v5.8h-16.47v37.53c0,7.65,2.74,11.47,8.24,11.47,1.8,0,3.35-.31,4.66-.94,1.3-.63,3.04-1.93,5.2-3.92l2.29,3.78c-5.22,6.21-10.8,9.31-16.74,9.31-4.59,0-8.15-1.85-10.67-5.54-2.16-3.15-3.24-7.15-3.24-12.01v-39.69h-8.5v-5.8h8.5v-16.9l10.26-8.25Z"/>
  <path class="cls-1" d="M203.69,177.08v27.49c0,3.79.27,6.39.81,7.79.54,1.4,1.53,2.1,2.97,2.1.54,0,1.53-.22,2.97-.67v3.92l-12.42,4.46c-1.71-2.43-2.9-4.57-3.58-6.41-.68-1.84-1.01-4.07-1.01-6.68-5.58,9.09-12.47,13.63-20.65,13.63-5.58,0-9.85-1.71-12.83-5.13-3.51-4.05-5.27-11.34-5.27-21.87v-23.62c0-1.89-.25-3.17-.74-3.85-.5-.67-1.51-1.01-3.04-1.01l-2.97.27v-4.39l17.28-5.9-.27,19.23v19.77c0,7.58,1.12,12.59,3.38,15.03,1.98,2.17,5.17,3.25,9.58,3.25,5.13,0,10.3-3.69,15.52-11.07v-28.21c0-3.42-.25-5.56-.74-6.41-.5-.85-1.73-1.28-3.71-1.28l-2.29.27v-4.66l17.42-5.9-.4,19.9Z"/>
  <path class="cls-1" d="M236.9,134.5v25.14h16.47v5.8h-16.47v37.53c0,7.65,2.74,11.47,8.24,11.47,1.8,0,3.35-.31,4.66-.94,1.3-.63,3.04-1.93,5.2-3.92l2.29,3.78c-5.22,6.21-10.8,9.31-16.74,9.31-4.59,0-8.15-1.85-10.67-5.54-2.16-3.15-3.24-7.15-3.24-12.01v-39.69h-8.5v-5.8h8.5v-16.9l10.26-8.25Z"/>
  <path class="cls-1" d="M277.67,134.5v25.14h16.47v5.8h-16.47v37.53c0,7.65,2.74,11.47,8.24,11.47,1.8,0,3.35-.31,4.66-.94,1.3-.63,3.04-1.93,5.2-3.92l2.29,3.78c-5.22,6.21-10.8,9.31-16.74,9.31-4.59,0-8.15-1.85-10.67-5.54-2.16-3.15-3.24-7.15-3.24-12.01v-39.69h-8.5v-5.8h8.5v-16.9l10.26-8.25Z"/>
  <path class="cls-1" d="M351.38,206.49c-5.31,10.8-12.92,16.2-22.81,16.2-7.83,0-14.27-2.83-19.3-8.5-5.04-5.67-7.56-12.91-7.56-21.74,0-9.63,2.56-17.86,7.69-24.71,5.13-6.84,11.29-10.26,18.5-10.26,6.39,0,11.68,2.21,15.86,6.62,4.19,4.41,6.73,10.49,7.63,18.22l-39.05,10.13c.99,6.7,3.33,12.04,7.03,16.02,3.69,3.98,8.11,5.98,13.24,5.98,3.15,0,5.92-.76,8.31-2.29,2.39-1.53,4.89-4.23,7.5-8.1l2.97,2.43ZM330.18,182.31c3.15-.81,5.36-1.8,6.62-2.97,1.26-1.17,1.89-2.83,1.89-4.99,0-3.6-.99-6.52-2.96-8.77-1.97-2.25-4.57-3.38-7.8-3.38-4.93,0-8.83,2.2-11.7,6.59-2.87,4.39-4.3,10.31-4.3,17.75l18.25-4.24Z"/>
  <path class="cls-1" d="M415.37,123.56v91.43l6.75.95v4.46h-23.76v-4.46l6.75-.95v-72.36c0-3.15-.29-5.29-.88-6.41-.59-1.12-1.69-1.69-3.31-1.69l-2.56.41v-4.74l17.01-6.63Z"/>
  <path class="cls-1" d="M482.06,206.49c-5.31,10.8-12.92,16.2-22.81,16.2-7.83,0-14.27-2.83-19.3-8.5-5.04-5.67-7.56-12.91-7.56-21.74,0-9.63,2.56-17.86,7.69-24.71,5.13-6.84,11.29-10.26,18.5-10.26,6.39,0,11.68,2.21,15.86,6.62,4.19,4.41,6.73,10.49,7.63,18.22l-39.05,10.13c.99,6.7,3.33,12.04,7.03,16.02,3.69,3.98,8.11,5.98,13.24,5.98,3.15,0,5.92-.76,8.31-2.29,2.39-1.53,4.89-4.23,7.5-8.1l2.97,2.43ZM460.86,182.31c3.15-.81,5.36-1.8,6.62-2.97,1.26-1.17,1.89-2.83,1.89-4.99,0-3.6-.99-6.52-2.96-8.77-1.97-2.25-4.57-3.38-7.8-3.38-4.93,0-8.83,2.2-11.7,6.59-2.87,4.39-4.3,10.31-4.3,17.75l18.25-4.24Z"/>
  <path class="cls-1" d="M567.38,164.64c0,1.62-.61,2.99-1.82,4.12-1.21,1.13-2.63,1.69-4.25,1.69-1.71,0-3.22-.41-4.52-1.24-1.31-.82-2.21-1.97-2.7-3.43-.5-1.46-.9-2.4-1.21-2.81-.32-.41-1.01-.62-2.09-.62h-.81c-2.61,0-4.82.81-6.62,2.44-1.8,1.62-2.7,3.65-2.7,6.09,0,2.89.81,5.01,2.43,6.36,1.62,1.35,6.03,3.56,13.23,6.63,4.77,1.98,8.55,4.74,11.34,8.25,2.79,3.52,4.18,7.35,4.18,11.5,0,5.41-2.14,9.94-6.41,13.6-4.28,3.65-9.56,5.48-15.86,5.48s-11.25-1.21-15.12-3.64c-3.87-2.43-5.8-5.62-5.8-9.58,0-1.89.54-3.46,1.62-4.73,1.08-1.26,2.43-1.89,4.05-1.89,3.78,0,6.35,2.48,7.69,7.42,1.35,4.95,4.27,7.42,8.78,7.42,3.33,0,6.14-1.06,8.44-3.18,2.29-2.12,3.44-4.67,3.44-7.64,0-5.05-5.15-9.88-15.46-14.48-10.31-4.6-15.46-10.15-15.46-16.64,0-5.32,2.29-9.74,6.88-13.26,4.59-3.52,10.44-5.28,17.55-5.28,3.33,0,6.03.67,8.1,2.02,2.07,1.35,3.1,3.15,3.1,5.4Z"/>
  <path class="cls-1" d="M597.89,134.5v25.14h16.47v5.8h-16.47v37.53c0,7.65,2.74,11.47,8.24,11.47,1.8,0,3.35-.31,4.66-.94,1.3-.63,3.04-1.93,5.2-3.92l2.29,3.78c-5.22,6.21-10.8,9.31-16.74,9.31-4.59,0-8.15-1.85-10.67-5.54-2.16-3.15-3.24-7.15-3.24-12.01v-39.69h-8.5v-5.8h8.5v-16.9l10.26-8.25Z"/>
  <path class="cls-1" d="M678.21,190.56c0,8.46-2.79,15.93-8.37,22.41-5.58,6.48-12.11,9.72-19.58,9.72s-14.49-3.19-19.98-9.58c-5.49-6.39-8.23-14.17-8.23-23.35s2.86-16.4,8.57-22.75c5.71-6.34,12.53-9.52,20.45-9.52s14.08,3.17,19.31,9.52c5.22,6.34,7.83,14.2,7.83,23.56ZM665.92,189.34c0-8.37-1.35-15.03-4.05-19.98-2.7-4.95-6.3-7.42-10.8-7.42-5.22,0-9.31,2.39-12.28,7.16-2.97,4.77-4.46,11.39-4.46,19.84,0,19.17,5.35,28.75,16.06,28.75,4.95,0,8.78-2.45,11.48-7.36,2.7-4.9,4.05-11.9,4.05-20.99Z"/>
  <path class="cls-1" d="M700.21,156.91c1.98,3.7,3.31,7.1,3.98,10.21s1.01,7.64,1.01,13.59c2.07-7.6,4.68-13.42,7.83-17.45,3.15-4.03,6.7-6.04,10.67-6.04,1.89,0,3.46.63,4.72,1.89,1.26,1.26,1.89,2.88,1.89,4.86,0,1.62-.63,3.1-1.89,4.46-1.26,1.35-2.79,2.02-4.59,2.02-.9,0-2.14-.25-3.71-.74-1.58-.49-2.68-.74-3.31-.74-2.7,0-5.11,3.38-7.22,10.15-2.12,6.77-3.17,14.48-3.17,23.14v12.72l7.16.95v4.47h-24.17v-4.46l6.75-.95v-32.26c0-10.71-2.07-16.07-6.21-16.07l-1.49.27v-4.6l11.75-5.42Z"/>
  <path class="cls-1" d="M753.94,156.81v58.18l6.34.95v4.46h-23.36v-4.46l6.75-.95v-44.42c0-3.06-1.21-4.59-3.64-4.59-.45,0-.99.07-1.62.2-.63.13-1.13.25-1.49.34v-4.18l17.01-5.54ZM755.83,136.56c0,1.8-.72,3.38-2.16,4.72-1.44,1.35-3.1,2.03-5,2.03s-3.69-.67-5.13-2.03c-1.44-1.35-2.16-3.01-2.16-5s.74-3.67,2.23-5.06c1.49-1.39,3.26-2.09,5.33-2.09,1.89,0,3.51.72,4.86,2.16,1.35,1.44,2.03,3.2,2.03,5.26Z"/>
  <path class="cls-1" d="M820.22,206.49c-5.31,10.8-12.92,16.2-22.82,16.2-7.83,0-14.27-2.83-19.3-8.5-5.04-5.67-7.56-12.91-7.56-21.74,0-9.63,2.56-17.86,7.69-24.71,5.13-6.84,11.29-10.26,18.5-10.26,6.39,0,11.68,2.21,15.86,6.62,4.19,4.41,6.73,10.49,7.63,18.22l-39.05,10.13c.99,6.7,3.33,12.04,7.03,16.02,3.69,3.98,8.11,5.98,13.24,5.98,3.15,0,5.92-.76,8.31-2.29,2.39-1.53,4.89-4.23,7.5-8.1l2.97,2.43ZM799.03,182.31c3.15-.81,5.36-1.8,6.62-2.97,1.26-1.17,1.89-2.83,1.89-4.99,0-3.6-.99-6.52-2.96-8.77-1.97-2.25-4.57-3.38-7.8-3.38-4.93,0-8.83,2.2-11.7,6.59-2.87,4.39-4.3,10.31-4.3,17.75l18.25-4.24Z"/>
</svg>